<?xml version="1.0" encoding="utf-8"?>
<!-- Generator: Adobe Illustrator 21.1.0, SVG Export Plug-In . SVG Version: 6.00 Build 0)  -->
<svg version="1.1" id="_x31_" xmlns="http://www.w3.org/2000/svg" xmlns:xlink="http://www.w3.org/1999/xlink" x="0px" y="0px"
	 viewBox="0 0 128 141" style="enable-background:new 0 0 128 141;" xml:space="preserve">
<style type="text/css">
	.st0{fill:#ce0606;}
	.st1{fill:rgba(252,195,37,0.151);}
</style>
<g>
	<rect class="st0" width="128" height="141"/>
	<g>
		<g>
			<g>
				<path class="st1" d="M46.301,52.158c-2.995,5.443-7.897,5.987-8.986,5.715c-1.089-0.272,3.54,5.171,9.803,0.817
					c1.089-1.905,1.361-4.355,1.906-2.994c0.544,1.361-1.906,4.627-0.545,5.987c1.361,1.361,4.629-2.722,5.446-6.26
					c0.817-3.538,1.906-11.431,4.357-14.152C58.282,41.271,49.296,46.715,46.301,52.158z"/>
				<path class="st1" d="M42.797,48.32c0.889-0.416-0.84,3.727,0.669,2.854c1.509-0.873,8.385-8.09,11.901-9.485
					c-3.459-0.799-12.824,4.667-17.858,3.355s-3.835-5.438-1.339-5.708c1.263-0.137,2.08,0.136,1.909,1.94
					c-0.13,1.382,2.407,2.291,2.505-0.172c0.097-2.463-2.062-3.447-3.9-3.342c-2.772,0.158-5.514,3.524-3.107,7.788
					C35.334,48.66,41.908,48.736,42.797,48.32z"/>
				<path class="st1" d="M56.178,38.836c0,0,0.771,0.091,2.224-1.724c1.452-1.814,1.361-2.813,1.361-3.901s-1.18-0.181-1.452,0.091
					c-0.272,0.272-0.272,1.451-0.635,1.089c-0.363-0.363-0.091-1.043-1.498-2.45c-1.407,1.406-1.135,2.087-1.498,2.45
					c-0.363,0.363-0.363-0.817-0.635-1.089c-0.272-0.272-1.452-1.18-1.452-0.091s-0.091,2.087,1.362,3.901
					C55.406,38.927,56.178,38.836,56.178,38.836z"/>
				<path class="st1" d="M65.09,38.005l-1.089,16.707l-1.089-16.707c-5.991,2.994-7.352,16.602-7.08,18.235
					c0.203,1.218,1.769-1.348,2.552-2.732c-0.312,0.666-0.751,1.792-1.191,3.549c-0.817,3.266-0.545,8.709,1.089,7.621
					c1.634-1.089,1.634-2.45,1.634-3.538c0-1.089,1.362-0.544,0.817,2.722c-0.545,3.266,3.268,7.621,3.268,7.621
					s3.812-4.355,3.268-7.621c-0.545-3.266,0.817-3.81,0.817-2.722c0,1.089,0,2.449,1.634,3.538
					c1.634,1.089,1.906-4.355,1.089-7.621c-0.439-1.756-0.878-2.882-1.191-3.549c0.783,1.384,2.349,3.95,2.552,2.732
					C72.442,54.607,71.08,40.999,65.09,38.005z"/>
				<path class="st1" d="M90.686,57.873c-1.089,0.272-5.991-0.272-8.986-5.715c-2.995-5.443-11.981-10.886-11.981-10.886
					c2.451,2.722,3.54,10.614,4.357,14.152c0.817,3.538,4.085,7.62,5.446,6.26c1.362-1.361-1.089-4.627-0.545-5.987
					c0.545-1.361,0.817,1.089,1.906,2.994C87.146,63.044,91.775,57.601,90.686,57.873z"/>
				<path class="st1" d="M91.317,37.761c-1.838-0.105-3.998,0.88-3.9,3.342c0.097,2.463,2.635,1.553,2.505,0.172
					c-0.17-1.805,0.647-2.077,1.91-1.94c2.496,0.27,3.695,4.396-1.339,5.708c-5.034,1.312-14.399-4.153-17.858-3.355
					c3.516,1.395,10.392,8.613,11.901,9.485c1.509,0.873-0.22-3.27,0.67-2.854s7.463,0.34,9.219-2.771
					C96.831,41.285,94.09,37.92,91.317,37.761z"/>
				<path class="st1" d="M71.824,38.836c0,0,0.771,0.091,2.224-1.724c1.452-1.814,1.362-2.813,1.362-3.901s-1.18-0.181-1.452,0.091
					c-0.272,0.272-0.272,1.451-0.635,1.089c-0.363-0.363-0.091-1.043-1.498-2.45c-1.407,1.406-1.135,2.087-1.498,2.45
					c-0.363,0.363-0.363-0.817-0.635-1.089c-0.272-0.272-1.452-1.18-1.452-0.091s-0.091,2.087,1.362,3.901
					C71.052,38.927,71.824,38.836,71.824,38.836z"/>
			</g>
			<path class="st1" d="M67.775,27.381c0-1.146-1.242-0.191-1.529,0.096c-0.287,0.286-0.287,1.528-0.669,1.146
				c-0.382-0.382-0.096-1.098-1.576-2.579c-1.481,1.48-1.194,2.197-1.577,2.579c-0.382,0.382-0.382-0.86-0.669-1.146
				c-0.287-0.287-1.529-1.242-1.529-0.096s-0.096,2.197,1.433,4.106c1.529,1.91,2.341,1.815,2.341,1.815s0.812,0.095,2.341-1.815
				C67.87,29.577,67.775,28.527,67.775,27.381z"/>
		</g>
	</g>
	<g>
		<g>
			<g>
				<g>
					<g>
						<g>
							<path class="st1" d="M4.539,93.098c-2.474,2.526-4.513,13.946-4.539,17V81.122c0,0,3.812,3.731,2.542,6.282
								C1.685,89.124,1.035,90.443,1.035,91c0,0.27,0.152,0.361,0.508,0.232c1.089-0.392,0.855-3.551,2.995-4.024
								C8.532,86.324,7.716,89.859,4.539,93.098z"/>
							<path class="st1" d="M7.141,131.315c-1.573,0-1.694,0.262-1.331,0.393c0.726,0,1.452,0.393,2.784,1.44
								c-2.542-1.963-5.809,0.393-3.389,0.654c2.542,0.131,4.72,2.618,6.415,2.487C11.861,134.194,8.973,131.315,7.141,131.315z"/>
							<path class="st1" d="M13.798,114.824c-3.873,0.655-5.204,3.141-5.204,3.141c2.784-2.094,7.746-2.225,10.166,1.963
								c2.42,4.188-1.331,5.759-1.089,8.115c0.242,2.356,1.816,2.879,2.905,1.701c1.089-1.178,0.484,2.487-1.452,3.926
								c-1.937,1.44-5.083-0.131-4.962-2.356c0.121-2.225,0.484-1.832,1.331-2.356s0.726-2.225-0.968-1.963
								c-1.694,0.262-2.057,3.534-1.089,6.151c0.968,2.618,4.236,3.272,7.02,1.701c2.784-1.57,6.173-5.89,4.599-12.695
								C23.48,115.348,17.671,114.17,13.798,114.824z"/>
							<path class="st1" d="M32.557,111.945c-1.21-4.188-7.262-9.162-14.281-6.675c-7.02,2.487-10.771,8.115-11.982,12.041
								c10.045-9.554,15.008-4.45,18.517-3.665c3.51,0.785,5.567-2.487,3.873-4.843c3.994,1.963,3.389,7.198,2.179,9.031
								c-1.21,1.832-1.936,0.916-3.631,0.916c-1.694,0-0.968,2.879,1.452,2.618C31.105,121.106,33.768,116.133,32.557,111.945z"/>
							<path class="st1" d="M21.235,92.143c-2.159-0.352-5.711,2.001-9.008,5.87c-1.028,1.205-2.03,2.557-2.957,4.019
								c-2.226,3.509-4.023,7.659-4.702,11.954c2.366-4.19,8.386-10.335,15.949-13.485C25.636,98.59,25.676,92.865,21.235,92.143z
								 M17.758,100.232l-0.027,0.013c-3.999,1.945-7.955,5.305-10.288,8.165c3.449-7.263,8.039-12.803,10.562-12.954
								c0.078-0.005,0.153-0.004,0.22,0.004c1.053,0.107,1.754,0.693,1.872,1.564C20.236,98.046,19.567,99.434,17.758,100.232z"/>
							<path class="st1" d="M1.544,109.491c0,0-0.272,2.356,0,1.178c0.272-1.178,1.725-7.853,4.992-11.485
								c-1.781,2.477-4.276,11.553-4.521,12.411c0.265-0.729,3.161-6.623,5.519-10.448c3.994-6.479,10.076-10.111,7.534-9.816
								c-2.542,0.294-5.991,3.828-7.171,5.202c0.454-0.589,0.272-1.374,0.272-2.454c0-1.08,0.363-1.767-2.451,0.294
								C2.905,96.435,1.725,108.215,1.544,109.491z"/>
							<path class="st1" d="M2.015,111.595c-0.009,0.024-0.015,0.043-0.018,0.055C1.992,111.676,1.998,111.655,2.015,111.595z"/>
						</g>
						<path class="st1" d="M2.785,137.074C2.179,139.037,0,141,0,141v-7.067c0.122-0.523,0.726-1.571,1.815-1.047
							C2.905,133.41,3.389,135.11,2.785,137.074z"/>
						<path class="st1" d="M11.648,118.793c-0.71,0.147-1.423,0.432-2.08,0.84c-0.768,0.475-1.46,1.118-1.981,1.903
							c-0.223,0.336-0.416,0.699-0.568,1.085c-0.817,2.061-1.45,3.066-2.903,3.066c-1.982,0-1.814-2.66-0.122-3.141
							c1.104-0.316,1.585-0.748,1.79-1.029c0.122-0.169,0.147-0.281,0.147-0.281s1.632-1.56-0.274-2.738
							c-0.418-0.258-0.779-0.671-1.12-1.159c-1.224-1.74-2.197-4.436-4.537-4.436v4.736c1.726,0,3.595,1.089,2.302,2.021
							C1.008,120.592,0,122.614,0,124.169v7.539c8.109,0,9.741-5.848,10.831-7.026c1.089-1.179,0.866-0.421,1.514,0.875
							c0.276,0.546,2.179-3.273,2.298-1.464c0.002,0.94,1.454,1.071,2.179-0.59C17.187,121.5,15.008,118.096,11.648,118.793z"/>
					</g>
					<g>
						<g>
							<g>
								<path class="st1" d="M52.384,136.241c-0.694,1.515-1.209,1.941-1.118,0.484c0.316-5.084-0.973-8.247-3.355-9.9
									c-2.382-1.651-4.824,1.575-4.145,6.068c0.566,3.749,2.284,5.839,2.115,8.107h3.284c-0.356-2.23-1.363-4.761-1.427-6.26
									c-0.091-2.177,0.105-2.558,0.181-1.814c0.281,2.734,1.808,5.525,2.11,8.074h1.587c0.828-1.339,1.665-3.023,2.413-4.676
									L52.384,136.241z M52.384,136.241c-0.694,1.515-1.209,1.941-1.118,0.484c0.316-5.084-0.973-8.247-3.355-9.9
									c-2.382-1.651-4.824,1.575-4.145,6.068c0.566,3.749,2.284,5.839,2.115,8.107h3.284c-0.356-2.23-1.363-4.761-1.427-6.26
									c-0.091-2.177,0.105-2.558,0.181-1.814c0.281,2.734,1.808,5.525,2.11,8.074h1.587c0.828-1.339,1.665-3.023,2.413-4.676
									L52.384,136.241z M52.384,136.241c-0.694,1.515-1.209,1.941-1.118,0.484c0.316-5.084-0.973-8.247-3.355-9.9
									c-2.382-1.651-4.824,1.575-4.145,6.068c0.566,3.749,2.284,5.839,2.115,8.107h3.284c-0.356-2.23-1.363-4.761-1.427-6.26
									c-0.091-2.177,0.105-2.558,0.181-1.814c0.281,2.734,1.808,5.525,2.11,8.074h1.587c0.828-1.339,1.665-3.023,2.413-4.676
									L52.384,136.241z M39.876,138.755c0,0-0.465,0.788-0.861,2.245H43.2C41.931,139.151,39.876,138.755,39.876,138.755z
									 M59.464,127.605c0.75-4.805-0.116-11.878-4.141-15.566c-4.025-3.691-9.769-2.215-11.956,0.806
									c-2.188,3.021-0.719,6.668,2.404,7.935c3.121,1.266,6.336-0.481,5.613-2.419c-0.722-1.94-1.38-0.149-3.78,0.523
									c-2.4,0.673-4.528-1.185-3.261-4.304c1.267-3.121,6.298-4.44,9.974,2.469c2.536,4.765-0.027,14.735-1.759,18.796
									c-0.06,0.138-0.118,0.27-0.174,0.396c-0.694,1.515-1.209,1.941-1.118,0.484c0.316-5.084-0.973-8.247-3.355-9.9
									c-2.382-1.651-4.824,1.575-4.145,6.068c0.566,3.749,2.284,5.839,2.115,8.107h3.284c-0.356-2.23-1.363-4.761-1.427-6.26
									c-0.091-2.177,0.105-2.558,0.181-1.814c0.281,2.734,1.808,5.525,2.11,8.074h1.587c0.828-1.339,1.665-3.023,2.413-4.676
									c0.051-0.111,0.1-0.221,0.149-0.33c1.225-2.738,2.193-5.313,2.456-5.971c0.545-1.361,0.091,4.627-2.905,9.435
									c3.177-2.177,4.992-5.625,4.992-4.808c0,0.816-1.725,3.901-5.446,6.169c-0.083,0.06-0.165,0.12-0.243,0.181h5.072
									c2.632-4.788,4.33-10.724,4.506-12.358C62.859,126.343,62.169,126.268,59.464,127.605z M52.384,136.241
									c-0.694,1.515-1.209,1.941-1.118,0.484c0.316-5.084-0.973-8.247-3.355-9.9c-2.382-1.651-4.824,1.575-4.145,6.068
									c0.566,3.749,2.284,5.839,2.115,8.107h3.284c-0.356-2.23-1.363-4.761-1.427-6.26c-0.091-2.177,0.105-2.558,0.181-1.814
									c0.281,2.734,1.808,5.525,2.11,8.074h1.587c0.828-1.339,1.665-3.023,2.413-4.676L52.384,136.241z M52.384,136.241
									c-0.694,1.515-1.209,1.941-1.118,0.484c0.316-5.084-0.973-8.247-3.355-9.9c-2.382-1.651-4.824,1.575-4.145,6.068
									c0.566,3.749,2.284,5.839,2.115,8.107h3.284c-0.356-2.23-1.363-4.761-1.427-6.26c-0.091-2.177,0.105-2.558,0.181-1.814
									c0.281,2.734,1.808,5.525,2.11,8.074h1.587c0.828-1.339,1.665-3.023,2.413-4.676L52.384,136.241z M52.384,136.241
									c-0.694,1.515-1.209,1.941-1.118,0.484c0.316-5.084-0.973-8.247-3.355-9.9c-2.382-1.651-4.824,1.575-4.145,6.068
									c0.566,3.749,2.284,5.839,2.115,8.107h3.284c-0.356-2.23-1.363-4.761-1.427-6.26c-0.091-2.177,0.105-2.558,0.181-1.814
									c0.281,2.734,1.808,5.525,2.11,8.074h1.587c0.828-1.339,1.665-3.023,2.413-4.676L52.384,136.241z"/>
							</g>
						</g>
					</g>
				</g>
			</g>
			<g>
				<g>
					<g>
						<g>
							<g>
								<path class="st1" d="M34.903,17.527c-0.576,1.024,0.694,3.642,3.471,3.786c0.597,0.219,0.663-0.394,1.211,0.285
									c0.548,0.679-0.932,1.451-2.877,0.776c-1.944-0.675-3.28-2.68-3.131-4.059c0.149-1.38,0.725-2.403,1.628-2.151
									C36.109,16.416,34.903,17.527,34.903,17.527z"/>
								<path class="st1" d="M33.544,23.024c-0.496,0.372-10.533,4.108-22.273,10.361c-2.983,1.59-6.074,3.34-9.15,5.238
									c-0.706,0.439-1.414,0.884-2.119,1.337C0,39.96,0,39.96,0,39.96v-2.666c0.002,0,0.002,0,0.002,0
									c4.152-2.548,8.326-4.807,12.22-6.766c0.33-0.167,0.661-0.33,0.988-0.493c0.915-0.454,1.81-0.889,2.683-1.308
									c0.153-0.073,0.303-0.145,0.454-0.216c7.737-3.687,13.712-6.006,15.021-6.848L33.544,23.024z"/>
								<path class="st1" d="M10.943,32.277c3.812-2.994-1.089-8.981,4.085-12.519c4.357,1.633,3.812,6.532,0.817,9.253
									c0.545-2.994-0.545-6.26-0.545-4.899S14.483,29.828,10.943,32.277z"/>
								<path class="st1" d="M12.305,35.543c8.169-4.355,7.624,0.272,14.976-2.722c4.901-2.177,4.629-4.082,2.723-4.082
									c-1.906,0-7.897-0.816-10.892,2.722c5.174-1.361,8.169-1.089,5.991-0.272C22.925,32.005,15.573,32.822,12.305,35.543z"/>
								<path class="st1" d="M50.029,0c0.091,0.749,0.073,1.477-0.112,2.177C50.456,1.713,51.035,0.942,51.616,0H50.029z M50.029,0
									c0.091,0.749,0.073,1.477-0.112,2.177C50.456,1.713,51.035,0.942,51.616,0H50.029z M53.032,0
									c-1.378,1.072-2.061,2.493-2.661,3.266c-0.635,0.817-5.719,7.53-7.806,10.433c-2.088,2.903-3.268,4.445-4.175,5.08
									c-0.367,0.258-0.572,0.276-0.653,0.172c-0.122-0.154,0.02-0.573,0.29-0.898c2.471-2.963,4.448-6.441,3.359-13.609
									c0-1.996,1.18,0.544,1.089,3.448c-0.091,2.903-0.091,3.357,0.635,3.085c0.726-0.272,5.174-5.806,5.991-8.256
									C49.354,1.958,49.327,1.011,49.165,0h-3.284c-0.031,0.45-0.138,0.909-0.345,1.388c-1.243,2.89-0.708,2.25-1.817-0.428
									C43.572,0.602,43.394,0.283,43.2,0h-4.185c-0.298,1.091-0.554,2.557-0.548,4.349c0.015,4.19,1.656,6.227-2.382,13.469
									c0,0,0,0.612,0.365,1.225c0.283,0.479,0.786,0.962,1.683,1.158c2.044,0.454,4.499,0.252,8.781-2.776s5.47-8.319,5.47-8.319
									c-3.242-0.443-5.072,3.874-4.618,1.829c0.452-2.045,2.062-1.873,6.701-6.024c1.342-1.201,2.567-2.961,3.638-4.91H53.032z"/>
							</g>
						</g>
						<g>
							<g>
								<path class="st1" d="M18.163,51.339c-0.652,0.492-1.287,1.009-1.919,1.531c-4.618-4.778-10.341-9.114-16.243-12.91
									C0,39.96,0,39.96,0,39.96v-2.666c0.002,0,0.002,0,0.002,0c0.708,0.436,1.414,0.878,2.119,1.328
									C7.89,42.314,13.512,46.563,18.163,51.339z"/>
							</g>
							<g>
								<path class="st1" d="M19.888,56.913l2.122-1.697c0.415-0.343,0.474-0.962,0.131-1.376c-0.343-0.415-0.962-0.473-1.377-0.131
									l-2.122,1.697c-0.415,0.342-0.474,0.962-0.131,1.376C18.854,57.196,19.473,57.255,19.888,56.913z"/>
							</g>
						</g>
					</g>
				</g>
				<path class="st1" d="M55.276,91.374c-0.939-2.056-5.247-12.887-19.191-25.18c-0.167-0.147-0.336-0.294-0.507-0.443
					c-0.169-0.149-0.341-0.298-0.514-0.445c-0.234-0.201-0.47-0.403-0.71-0.604c-2.189-1.842-4.595-3.711-7.242-5.581
					c-1.04-0.735-2.119-1.472-3.235-2.206c0,0-3.969,0.484-2.175,2.391c4.237,4.502,11.666,11.059,11.257,18.675
					c0,0.038-0.004,0.074-0.006,0.112c-0.082,1.29-0.39,2.609-0.977,3.956c-2.142,4.91-7.371-0.047-4.123-2.618
					c1.937-1.615,1.463-0.062,2.865-0.483c0.45-0.134,0.706-0.521,0.735-0.949c0.002-0.027,0.004-0.053,0.004-0.08v-0.007
					c0-0.88-0.955-1.867-3.13-1.138c-3.311,1.111-4.317,6.064-1.329,8.505s7.133-0.281,7.873-3.535
					c0.436-1.916,0.804-1.586,0.955-0.338c0.005,0.042,0.009,0.083,0.014,0.127c0.089,0.867,0.082,2.121-0.069,3.371
					c-0.383,3.194,2.298,5.625,3.751,5.502c2.847-0.238,1.509-7.43,1.356-9.428c-0.125-1.651,2.908,0.018,1.984,7.423
					c0,0.002,0,0.002,0,0.004c-0.009,0.085-0.02,0.172-0.033,0.258c-0.016,0.125-0.033,0.25-0.053,0.379
					c-0.209,1.404-0.554,2.999-1.08,4.801c-0.579,1.987,0.873,5.189,2.099,5.904c1.225,0.713,4.085-3.081,3.153-6.42
					c-0.138-0.492-0.193-0.762-0.193-0.856c0-0.55,1.868,4.763,0.65,6.851c-1.429,2.448,0.132,7.338,2.099,5.903
					c1.968-1.435,4.68-3.916,3.119-8.806c-0.214-0.671-0.347-1.201-0.416-1.609c-0.006-0.031-0.011-0.06-0.015-0.089
					c-0.368-2.412,1.636-0.149,1.447,2.264c-0.194,2.486,3.322,5.144,3.529,4.19C57.38,100.221,56.759,94.631,55.276,91.374z
					 M50.409,101.105c-0.363-4.598-1.694-12.338-4.479-17.903c0.25,1.415-0.418,6.728-1.015,9.154
					c-0.27,1.096-0.528,1.602-0.679,0.885c-0.189-0.893,0.007-2.37,0.238-4.05c0.013-0.098,0.027-0.194,0.04-0.294
					c0-0.002,0-0.002,0-0.004c0.013-0.092,0.026-0.185,0.038-0.278c0.345-2.509,0.683-5.36-0.074-7.351
					c-1.331-3.507-7.503-12.701-6.777-9.798c0.726,2.903,0.968,14.516,0.363,11.734c-0.094-0.436-0.169-1.02-0.234-1.711
					c-0.005-0.058-0.011-0.118-0.016-0.178c-0.352-3.763-0.543-10.399-2.654-13.112c-2.542-3.266-5.083-4.233-8.956-7.74
					c2.491,1.41,4.751,3.005,6.799,4.727c0.173,0.145,0.345,0.292,0.514,0.439c0.167,0.145,0.332,0.29,0.497,0.437
					c0.163,0.145,0.327,0.294,0.488,0.441c10.008,9.174,14.505,21.327,15.836,28.549C50.948,98.351,50.897,100.617,50.409,101.105z"
					/>
			</g>
		</g>
		<g>
			<g>
				<g>
					<g>
						<g>
							<path class="st1" d="M119.408,133.147c1.331-1.047,2.057-1.44,2.784-1.44c0.363-0.131,0.242-0.393-1.331-0.393
								c-1.831,0-4.72,2.879-4.478,4.973c1.694,0.131,3.873-2.356,6.414-2.487C125.217,133.54,121.949,131.184,119.408,133.147z"/>
							<path class="st1" d="M113.477,126.996c-1.694-0.262-1.815,1.44-0.968,1.963c0.847,0.523,1.21,0.131,1.331,2.356
								c0.121,2.225-3.026,3.796-4.962,2.356c-1.936-1.44-2.542-5.104-1.452-3.926c1.089,1.178,2.663,0.654,2.905-1.701
								c0.242-2.356-3.51-3.927-1.089-8.115c2.421-4.188,7.383-4.057,10.166-1.963c0,0-1.331-2.487-5.204-3.141
								c-3.873-0.654-9.682,0.524-11.256,7.329c-1.573,6.806,1.815,11.125,4.599,12.695c2.784,1.571,6.051,0.916,7.02-1.701
								C115.535,130.53,115.172,127.258,113.477,126.996z"/>
							<path class="st1" d="M103.19,113.646c3.51-0.785,8.472-5.89,18.517,3.665c-1.21-3.926-4.962-9.554-11.982-12.041
								c-7.02-2.487-13.071,2.487-14.281,6.675c-1.21,4.188,1.452,9.162,3.873,9.423c2.421,0.262,3.147-2.618,1.452-2.618
								c-1.694,0-2.421,0.916-3.631-0.916c-1.21-1.832-1.815-7.067,2.179-9.031C97.623,111.159,99.68,114.431,103.19,113.646z"/>
							<path class="st1" d="M106.767,92.143c-4.441,0.722-4.401,6.447,0.719,8.357c7.563,3.15,13.583,9.296,15.949,13.485
								C121.564,102.156,111.207,91.419,106.767,92.143z M110.271,100.245l-0.027-0.013c-1.81-0.798-2.478-2.187-2.34-3.208
								c0.12-0.871,0.819-1.457,1.872-1.564c0.069-0.007,0.144-0.009,0.222-0.004c2.521,0.151,7.111,5.69,10.56,12.954
								C118.224,105.55,114.27,102.19,110.271,100.245z"/>
							<path class="st1" d="M128,81.122v28.976c-0.025-3.054-2.062-14.474-4.539-17c-3.177-3.239-3.994-6.774,0-5.89
								c2.142,0.474,1.906,3.633,2.995,4.024c0.356,0.129,0.508,0.038,0.508-0.232c0-0.557-0.65-1.876-1.507-3.596
								C124.188,84.853,128,81.122,128,81.122z"/>
							<path class="st1" d="M126.004,111.65c-0.003-0.012-0.009-0.031-0.018-0.055C126.003,111.655,126.01,111.676,126.004,111.65z"
								/>
							<path class="st1" d="M120.467,101.147c2.358,3.825,5.255,9.719,5.519,10.448c-0.245-0.858-2.74-9.934-4.521-12.411
								c3.268,3.632,4.72,10.307,4.992,11.485c0.272,1.178,0-1.178,0-1.178c-0.181-1.276-1.362-13.055-4.175-15.117
								c-2.814-2.061-2.451-1.374-2.451-0.294c0,1.08-0.182,1.865,0.272,2.454c-1.18-1.374-4.629-4.908-7.171-5.202
								C110.391,91.036,116.473,94.668,120.467,101.147z"/>
						</g>
						<path class="st1" d="M128,133.933V141c0,0-2.179-1.963-2.783-3.926c-0.604-1.963-0.122-3.663,0.968-4.188
							C127.274,132.361,127.88,133.41,128,133.933z"/>
						<path class="st1" d="M128,117.638v-4.736c-2.901,0-3.7,4.144-5.479,5.476c-0.058,0.044-0.116,0.084-0.176,0.12
							c-1.492,0.922-0.815,2.079-0.452,2.537c0.102,0.127,0.178,0.201,0.178,0.201s0.011,0.051,0.055,0.134
							c0.131,0.25,0.556,0.796,1.881,1.176c1.694,0.481,1.863,3.141-0.12,3.141c-1.452,0-2.086-1.005-2.903-3.066
							c-0.153-0.387-0.345-0.749-0.568-1.085c-0.06-0.091-0.123-0.18-0.189-0.269c-0.973-1.306-2.431-2.176-3.872-2.475
							c-0.227-0.047-0.45-0.076-0.666-0.087c-2.977-0.154-4.847,2.93-4.508,4.798c0.724,1.66,2.177,1.53,2.178,0.59
							c0.118-1.809,2.022,2.011,2.297,1.464c0.65-1.296,0.427-2.054,1.516-0.875c1.089,1.178,2.721,7.026,10.829,7.026v-7.539
							c0-1.555-1.006-3.576-2.3-4.509C124.405,118.727,126.275,117.638,128,117.638z"/>
					</g>
					<g>
						<g>
							<g>
								<path class="st1" d="M80.091,126.825c-2.384,1.653-3.671,4.816-3.357,9.9c0.022,0.365,0.007,0.613-0.038,0.753
									c-0.149,0.448-0.612-0.171-1.174-1.453c-1.732-3.937-4.413-14.139-1.839-18.976c3.678-6.91,8.709-5.59,9.976-2.469
									c1.267,3.119-0.861,4.977-3.261,4.304c-2.4-0.671-3.059-2.462-3.78-0.523c-0.722,1.938,2.491,3.685,5.613,2.419
									c3.122-1.267,4.591-4.914,2.404-7.935c-2.188-3.021-7.933-4.496-11.956-0.806c-4.025,3.689-4.893,10.762-4.141,15.566
									c-2.705-1.337-3.395-1.263-3.148,1.036c0.176,1.635,1.875,7.57,4.508,12.358h5.072c-0.078-0.062-0.16-0.122-0.243-0.181
									c-3.722-2.268-5.446-5.353-5.446-6.169c0-0.817,1.815,2.631,4.992,4.808c-2.995-4.808-3.449-10.796-2.905-9.435
									c0.272,0.68,1.295,3.402,2.576,6.236c0.755,1.673,1.603,3.386,2.442,4.741h1.587c0.132-1.116,0.497-2.277,0.891-3.46
									c0.508-1.521,1.06-3.076,1.218-4.614c0.076-0.744,0.272-0.363,0.181,1.814c-0.063,1.499-1.071,4.03-1.427,6.26h3.284
									c-0.169-2.268,1.549-4.358,2.115-8.107C84.915,128.4,82.473,125.174,80.091,126.825z M88.126,138.755
									c0,0-2.055,0.396-3.324,2.245h4.185C88.591,139.543,88.126,138.755,88.126,138.755z"/>
							</g>
						</g>
					</g>
				</g>
			</g>
			<g>
				<g>
					<g>
						<g>
							<g>
								<path class="st1" d="M128,37.297v2.664c-5.902,3.796-11.626,8.132-16.244,12.91c-0.63-0.523-1.265-1.04-1.917-1.531
									c4.651-4.776,10.273-9.025,16.043-12.714C126.586,38.173,127.292,37.73,128,37.297z"/>
							</g>
							<g>
								<path class="st1" d="M108.113,56.913l-2.122-1.697c-0.415-0.343-0.474-0.962-0.131-1.376
									c0.343-0.415,0.962-0.473,1.377-0.131l2.122,1.697c0.415,0.342,0.474,0.962,0.131,1.376
									C109.148,57.196,108.528,57.255,108.113,56.913z"/>
							</g>
						</g>
						<g>
							<g>
								<path class="st1" d="M93.098,17.527c0.576,1.024-0.694,3.642-3.471,3.786c-0.597,0.219-0.663-0.394-1.211,0.285
									c-0.547,0.679,0.932,1.451,2.877,0.776c1.945-0.675,3.28-2.68,3.131-4.059c-0.149-1.38-0.725-2.403-1.628-2.151
									C91.892,16.416,93.098,17.527,93.098,17.527z"/>
								<path class="st1" d="M128,37.295v2.664c-0.704-0.452-1.411-0.896-2.119-1.334c-15.173-9.377-30.804-15.135-31.425-15.601
									l2.179-1.361c1.309,0.842,7.283,3.161,15.021,6.848c0.151,0.071,0.301,0.143,0.454,0.216
									c0.873,0.419,1.768,0.855,2.683,1.308c0.327,0.163,0.657,0.327,0.988,0.493C119.674,32.488,123.848,34.747,128,37.295z"/>
								<path class="st1" d="M117.058,32.277c-3.812-2.994,1.089-8.981-4.085-12.519c-4.357,1.633-3.812,6.532-0.817,9.253
									c-0.545-2.994,0.545-6.26,0.545-4.899S113.518,29.828,117.058,32.277z"/>
								<path class="st1" d="M115.696,35.543c-8.169-4.355-7.624,0.272-14.977-2.722c-4.901-2.177-4.629-4.082-2.723-4.082
									c1.906,0,7.897-0.816,10.892,2.722c-5.174-1.361-8.169-1.089-5.991-0.272C105.077,32.005,112.429,32.822,115.696,35.543z"/>
								<path class="st1" d="M77.972,0h-1.587c0.581,0.942,1.16,1.713,1.699,2.177C77.9,1.477,77.882,0.749,77.972,0z M77.972,0
									h-1.587c0.581,0.942,1.16,1.713,1.699,2.177C77.9,1.477,77.882,0.749,77.972,0z M77.972,0h-1.587
									c0.581,0.942,1.16,1.713,1.699,2.177C77.9,1.477,77.882,0.749,77.972,0z M77.972,0h-1.587
									c0.581,0.942,1.16,1.713,1.699,2.177C77.9,1.477,77.882,0.749,77.972,0z M89.535,4.349C89.54,2.557,89.283,1.091,88.987,0
									h-4.185c-0.196,0.283-0.372,0.602-0.521,0.96c-1.107,2.678-0.572,3.319-1.815,0.428C82.259,0.909,82.151,0.45,82.121,0
									h-3.284c-0.162,1.011-0.189,1.958,0.065,2.722c0.817,2.45,5.265,7.984,5.991,8.256c0.726,0.272,0.726-0.181,0.635-3.085
									c-0.091-2.903,1.089-5.443,1.089-3.448c-1.089,7.167,0.888,10.646,3.358,13.609c0.336,0.403,0.474,0.956,0.151,0.956
									c-0.111,0-0.28-0.067-0.514-0.231c-0.908-0.635-2.088-2.177-4.175-5.08c-2.088-2.903-7.171-9.617-7.806-10.433
									C77.03,2.493,76.348,1.072,74.97,0h-5.072c1.071,1.949,2.297,3.709,3.638,4.91c4.637,4.152,6.247,3.979,6.701,6.024
									c0.454,2.045-1.376-2.272-4.618-1.829c0,0,1.187,5.291,5.47,8.319c4.283,3.028,6.735,3.23,8.781,2.776
									c0.256-0.056,0.479-0.136,0.675-0.232c0.044-0.022,0.085-0.043,0.125-0.065c1.245-0.697,1.247-2.085,1.247-2.085
									C87.877,10.577,89.52,8.539,89.535,4.349z M78.085,2.177C77.9,1.477,77.882,0.749,77.972,0h-1.587
									C76.967,0.942,77.546,1.713,78.085,2.177z M77.972,0h-1.587c0.581,0.942,1.16,1.713,1.699,2.177
									C77.9,1.477,77.882,0.749,77.972,0z M77.972,0h-1.587c0.581,0.942,1.16,1.713,1.699,2.177C77.9,1.477,77.882,0.749,77.972,0
									z M77.972,0h-1.587c0.581,0.942,1.16,1.713,1.699,2.177C77.9,1.477,77.882,0.749,77.972,0z M77.972,0h-1.587
									c0.581,0.942,1.16,1.713,1.699,2.177C77.9,1.477,77.882,0.749,77.972,0z"/>
							</g>
						</g>
					</g>
				</g>
				<path class="st1" d="M82.07,83.201c-2.783,5.565-4.114,13.306-4.477,17.903c-0.488-0.488-0.539-2.754,0.071-6.051l-1.899-0.118
					c-0.073,0.388-0.2,0.878-0.392,1.484c-1.559,4.89,1.153,7.37,3.119,8.806c1.968,1.435,3.527-3.455,2.1-5.903
					c-1.158-1.987,0.476-6.891,0.637-6.891l1.792-0.352C82.44,89.549,81.828,84.566,82.07,83.201z M82.07,83.201
					c-2.783,5.565-4.114,13.306-4.477,17.903c-0.488-0.488-0.539-2.754,0.071-6.051l-1.899-0.118
					c-0.073,0.388-0.2,0.878-0.392,1.484c-1.559,4.89,1.153,7.37,3.119,8.806c1.968,1.435,3.527-3.455,2.1-5.903
					c-1.158-1.987,0.476-6.891,0.637-6.891l1.792-0.352C82.44,89.549,81.828,84.566,82.07,83.201z M82.07,83.201
					c-2.783,5.565-4.114,13.306-4.477,17.903c-0.488-0.488-0.539-2.754,0.071-6.051l-1.899-0.118
					c-0.073,0.388-0.2,0.878-0.392,1.484c-1.559,4.89,1.153,7.37,3.119,8.806c1.968,1.435,3.527-3.455,2.1-5.903
					c-1.158-1.987,0.476-6.891,0.637-6.891l1.792-0.352C82.44,89.549,81.828,84.566,82.07,83.201z M82.07,83.201
					c-2.783,5.565-4.114,13.306-4.477,17.903c-0.488-0.488-0.539-2.754,0.071-6.051l-1.899-0.118
					c-0.073,0.388-0.2,0.878-0.392,1.484c-1.559,4.89,1.153,7.37,3.119,8.806c1.968,1.435,3.527-3.455,2.1-5.903
					c-1.158-1.987,0.476-6.891,0.637-6.891l1.792-0.352C82.44,89.549,81.828,84.566,82.07,83.201z M104.124,56.915
					c-2.93,1.931-5.597,3.867-8.022,5.785c-0.81,0.639-1.592,1.277-2.347,1.912C78.344,77.548,73.702,89.233,72.726,91.374
					c-1.483,3.257-2.104,8.847-1.897,9.802c0.207,0.954,3.723-1.704,3.529-4.19c-0.194-2.482,1.93-4.801,1.407-2.05
					c-0.073,0.388-0.2,0.878-0.392,1.484c-1.559,4.89,1.153,7.37,3.119,8.806c1.968,1.435,3.527-3.455,2.1-5.903
					c-1.158-1.987,0.476-6.891,0.637-6.891c0.038,0-0.004,0.265-0.18,0.896c-0.931,3.339,1.928,7.133,3.153,6.42
					c1.224-0.715,2.678-3.918,2.099-5.904c-0.526-1.802-0.871-3.397-1.08-4.801c-0.018-0.127-0.036-0.254-0.053-0.377
					c-1.028-7.628,2.079-9.357,1.952-7.686c-0.153,1.998-1.491,9.19,1.356,9.428c1.452,0.123,4.132-2.308,3.751-5.502
					c-0.143-1.201-0.158-2.408-0.078-3.27c0.133-1.43,0.517-1.918,0.979,0.109c0.741,3.253,4.883,5.975,7.873,3.535
					c2.988-2.44,1.982-7.394-1.329-8.505c-2.247-0.753-3.191,0.325-3.128,1.225c0.029,0.428,0.287,0.815,0.737,0.949
					c1.402,0.421,0.926-1.132,2.863,0.483c3.25,2.571-1.979,7.528-4.123,2.618c-0.586-1.346-0.895-2.666-0.975-3.956
					c-0.487-7.663,6.993-14.264,11.252-18.787C108.092,57.399,104.124,56.915,104.124,56.915z M92.842,68.201
					c-2.144,2.756-2.307,9.561-2.671,13.289c-0.065,0.691-0.14,1.276-0.234,1.711c-0.606,2.782-0.363-8.831,0.363-11.734
					c0.726-2.903-5.446,6.291-6.779,9.798c-0.784,2.067-0.392,5.053-0.036,7.63c0,0.002,0,0.002,0,0.004
					c0.013,0.1,0.027,0.198,0.04,0.294c0.232,1.678,0.427,3.155,0.24,4.048c-0.163,0.775-0.45,0.122-0.744-1.161
					c-0.581-2.531-1.193-7.514-0.951-8.878c-2.783,5.565-4.114,13.306-4.477,17.903c-0.488-0.488-0.539-2.754,0.071-6.051
					c1.411-7.644,6.368-20.819,17.657-30.133c0.735-0.608,1.499-1.199,2.289-1.771c1.318-0.953,2.712-1.853,4.188-2.689
					C97.926,63.968,95.384,64.935,92.842,68.201z M82.07,83.201c-2.783,5.565-4.114,13.306-4.477,17.903
					c-0.488-0.488-0.539-2.754,0.071-6.051l-1.899-0.118c-0.073,0.388-0.2,0.878-0.392,1.484c-1.559,4.89,1.153,7.37,3.119,8.806
					c1.968,1.435,3.527-3.455,2.1-5.903c-1.158-1.987,0.476-6.891,0.637-6.891l1.792-0.352C82.44,89.549,81.828,84.566,82.07,83.201
					z M82.07,83.201c-2.783,5.565-4.114,13.306-4.477,17.903c-0.488-0.488-0.539-2.754,0.071-6.051l-1.899-0.118
					c-0.073,0.388-0.2,0.878-0.392,1.484c-1.559,4.89,1.153,7.37,3.119,8.806c1.968,1.435,3.527-3.455,2.1-5.903
					c-1.158-1.987,0.476-6.891,0.637-6.891l1.792-0.352C82.44,89.549,81.828,84.566,82.07,83.201z M82.07,83.201
					c-2.783,5.565-4.114,13.306-4.477,17.903c-0.488-0.488-0.539-2.754,0.071-6.051l-1.899-0.118
					c-0.073,0.388-0.2,0.878-0.392,1.484c-1.559,4.89,1.153,7.37,3.119,8.806c1.968,1.435,3.527-3.455,2.1-5.903
					c-1.158-1.987,0.476-6.891,0.637-6.891l1.792-0.352C82.44,89.549,81.828,84.566,82.07,83.201z M82.07,83.201
					c-2.783,5.565-4.114,13.306-4.477,17.903c-0.488-0.488-0.539-2.754,0.071-6.051l-1.899-0.118
					c-0.073,0.388-0.2,0.878-0.392,1.484c-1.559,4.89,1.153,7.37,3.119,8.806c1.968,1.435,3.527-3.455,2.1-5.903
					c-1.158-1.987,0.476-6.891,0.637-6.891l1.792-0.352C82.44,89.549,81.828,84.566,82.07,83.201z"/>
			</g>
		</g>
	</g>
</g>
</svg>
